<svg width="346" height="346" viewBox="0 0 346 346" fill="none" xmlns="http://www.w3.org/2000/svg">
<path d="M335.978 163.852C334.53 163.865 333.107 164.222 331.824 164.894L319.13 152.186C315.748 128.342 306.565 105.693 292.386 86.2266L297.113 77.1125C298.889 77.2388 300.664 76.8419 302.217 75.9706C303.771 75.0994 305.035 73.7921 305.853 72.2104C306.672 70.6286 307.009 68.8417 306.823 67.0703C306.638 65.299 305.937 63.621 304.808 62.2436C304.45 61.8011 304.054 61.3915 303.623 61.0197C302.705 60.2425 301.642 59.6547 300.496 59.2901C299.35 58.9255 298.143 58.7914 296.945 58.8955C295.746 58.9996 294.581 59.3398 293.515 59.8966C292.448 60.4533 291.503 61.2156 290.733 62.1394L290.668 62.2436H270.526C248.895 43.0787 222.11 30.6914 193.499 26.6206L180.791 13.926C181.471 12.6466 181.828 11.2211 181.833 9.77256C181.821 8.40078 181.501 7.04926 180.894 5.81878C180.288 4.58829 179.411 3.51058 178.33 2.66602C177.249 1.82145 175.991 1.23181 174.651 0.941061C173.31 0.650312 171.921 0.665957 170.587 0.986827C169.253 1.3077 168.009 1.92552 166.948 2.79422C165.886 3.66292 165.034 4.76009 164.455 6.00392C163.877 7.24775 163.586 8.60616 163.606 9.97785C163.625 11.3495 163.954 12.6991 164.568 13.926L151.861 26.6206C123.259 30.6702 96.4788 43.035 74.8466 62.1785H54.7176C54.3645 61.7361 53.9724 61.3265 53.5458 60.9546C52.6275 60.1754 51.5639 59.5859 50.4165 59.2202C49.2691 58.8545 48.0606 58.7198 46.8608 58.8239C45.661 58.928 44.4938 59.2689 43.4265 59.8268C42.3592 60.3847 41.4131 61.1486 40.6428 62.0743C40.6241 62.1108 40.6023 62.1457 40.5777 62.1785C39.4454 63.5548 38.7414 65.2328 38.5529 67.0051C38.3643 68.7773 38.6996 70.5659 39.517 72.1496C40.3345 73.7333 41.5984 75.0426 43.1522 75.9154C44.7061 76.7883 46.4818 77.1864 48.2596 77.0605L52.9859 86.1745C38.795 105.655 29.607 128.323 26.2296 152.186L13.535 164.894C12.3081 164.28 10.9585 163.951 9.58685 163.932C8.21516 163.912 6.85676 164.203 5.61293 164.781C4.36909 165.36 3.27192 166.212 2.40322 167.274C1.53452 168.335 0.916705 169.579 0.595835 170.913C0.274964 172.247 0.259322 173.636 0.550071 174.977C0.84082 176.317 1.43046 177.575 2.27503 178.656C3.11959 179.737 4.1973 180.614 5.42778 181.22C6.65827 181.827 8.00978 182.147 9.38157 182.159C10.8301 182.154 12.2556 181.796 13.535 181.117L26.2296 193.825C29.6113 217.669 38.7944 240.318 52.9729 259.785L46.4628 272.284C44.9998 272.486 43.6079 273.041 42.4069 273.9C41.2058 274.76 40.2316 275.898 39.5681 277.218C38.9047 278.537 38.5718 279.998 38.5981 281.475C38.6245 282.951 39.0093 284.4 39.7194 285.695C40.4295 286.989 41.4437 288.092 42.6747 288.909C43.9056 289.725 45.3165 290.229 46.7857 290.379C48.255 290.529 49.7386 290.32 51.109 289.769C52.4794 289.218 53.6954 288.343 54.6525 287.218C55.4803 286.231 56.0844 285.076 56.4232 283.833H74.8336C96.461 303.003 123.247 315.391 151.861 319.456L164.568 332.15C163.954 333.377 163.625 334.727 163.606 336.099C163.586 337.47 163.877 338.829 164.455 340.072C165.034 341.316 165.886 342.413 166.948 343.282C168.009 344.151 169.253 344.769 170.587 345.09C171.921 345.41 173.31 345.426 174.651 345.135C175.991 344.845 177.249 344.255 178.33 343.41C179.411 342.566 180.288 341.488 180.894 340.258C181.501 339.027 181.821 337.676 181.833 336.304C181.826 334.856 181.469 333.43 180.791 332.15L193.499 319.456C222.112 315.391 248.898 303.003 270.526 283.833H290.642C290.996 284.278 291.393 284.688 291.827 285.057C292.745 285.834 293.807 286.422 294.953 286.786C296.1 287.151 297.307 287.285 298.505 287.181C299.703 287.077 300.869 286.737 301.935 286.18C303.001 285.623 303.946 284.861 304.717 283.937L304.782 283.833C305.911 282.455 306.611 280.777 306.797 279.006C306.983 277.235 306.646 275.448 305.827 273.866C305.009 272.284 303.745 270.977 302.191 270.106C300.638 269.235 298.863 268.838 297.087 268.964L292.36 259.85C306.539 240.383 315.722 217.734 319.104 193.89L331.798 181.182C333.078 181.86 334.504 182.217 335.952 182.224C338.379 182.224 340.707 181.26 342.424 179.543C344.141 177.826 345.105 175.498 345.105 173.071C345.105 170.643 344.141 168.315 342.424 166.598C340.707 164.882 338.379 163.918 335.952 163.918L335.978 163.852ZM25.3312 185.843L17.1936 177.719C18.0701 176.305 18.5344 174.675 18.5344 173.012C18.5344 171.349 18.0701 169.719 17.1936 168.305L25.3312 160.168C24.9666 164.399 24.7453 168.683 24.7453 173.006C24.7453 177.328 24.9666 181.612 25.3312 185.843ZM288.611 67.1782C288.476 68.6432 288.699 70.119 289.259 71.4794C289.819 72.8398 290.7 74.0444 291.827 74.9903C291.996 75.1335 292.191 75.2377 292.373 75.3679L289.04 81.8779C284.989 76.719 280.605 71.8304 275.916 67.2433L288.611 67.1782ZM167.927 17.5195C169.341 18.396 170.971 18.8603 172.634 18.8603C174.297 18.8603 175.927 18.396 177.341 17.5195L185.465 25.6571C181.234 25.2925 176.963 25.0712 172.628 25.0712C168.292 25.0712 164.021 25.2925 159.79 25.6571L167.927 17.5195ZM54.6525 73.8575C56.207 71.9953 56.9648 69.5955 56.7617 67.1782H69.4303C64.7466 71.7625 60.3709 76.6514 56.3321 81.8128L52.9989 75.3028C53.601 74.8825 54.1554 74.3979 54.6525 73.8575ZM56.4492 278.833C55.9512 277.073 54.935 275.503 53.5327 274.328C52.9684 273.861 52.3472 273.467 51.6839 273.156L56.319 264.211C60.3622 269.369 64.7422 274.254 69.4303 278.833H56.4492ZM177.38 328.492C175.966 327.615 174.336 327.151 172.673 327.151C171.01 327.151 169.38 327.615 167.966 328.492L159.842 320.406C164.073 320.771 168.357 321.005 172.68 321.005C177.002 321.005 181.286 320.771 185.517 320.406L177.38 328.492ZM275.291 108.361L234.122 67.1782H248.782C260.942 75.966 271.51 86.7676 280.03 99.1165L275.291 108.361ZM283.22 103.921C288.044 111.594 292.054 119.75 295.186 128.256L279.015 112.085L283.22 103.921ZM283.012 176.117C274.728 182.914 265.715 188.77 256.139 193.577L257.219 192.731C260.061 190.478 262.766 188.056 265.318 185.479C266.965 183.825 268.525 182.087 269.992 180.271C270.994 178.969 271.489 178.331 271.489 178.331C271.489 178.331 270.877 178.93 269.692 179.997C268.508 181.065 266.685 182.523 264.341 184.333C261.998 186.143 259.042 188.174 255.566 190.361C253.821 191.442 251.985 192.614 249.941 193.669C247.897 194.723 245.853 195.986 243.561 197.041L240.124 198.72C238.926 199.267 237.689 199.749 236.452 200.283L232.676 201.923L228.692 203.369L224.604 204.84L220.32 206.142L215.945 207.444L211.441 208.498L206.844 209.553C205.295 209.905 203.707 210.074 202.131 210.347L199.527 210.764C197.496 211.024 195.426 211.259 193.33 211.467C200.261 207.74 206.054 202.207 210.095 195.454C214.135 188.701 216.272 180.979 216.279 173.11C216.286 165.24 214.162 157.515 210.133 150.755C206.104 143.995 200.32 138.452 193.395 134.714C199.814 135.351 205.881 136.276 211.623 137.409L215.958 138.411L220.333 139.713L224.617 141.015L228.705 142.5L232.689 143.945L236.478 145.559C237.78 146.093 238.952 146.575 240.15 147.109L243.587 148.801C245.879 149.856 247.962 151.054 249.967 152.173C251.972 153.293 253.873 154.4 255.592 155.481C259.068 157.655 261.998 159.725 264.367 161.509C266.737 163.293 268.521 164.79 269.718 165.845C270.916 166.899 271.515 167.511 271.515 167.511C271.515 167.511 271.021 166.821 270.018 165.571C268.548 163.758 266.988 162.019 265.344 160.363C262.791 157.791 260.087 155.373 257.245 153.124C259.498 154.296 261.646 155.455 263.612 156.587C270.451 160.521 276.949 165.02 283.038 170.037L223.692 173.149L283.012 176.117ZM62.1911 170.011C70.2069 163.416 78.9114 157.706 88.1532 152.981C85.2985 155.238 82.5852 157.669 80.0286 160.259C78.3838 161.911 76.8279 163.65 75.3674 165.467C74.3519 166.769 73.8701 167.407 73.8701 167.407C73.8701 167.407 74.469 166.808 75.6539 165.74C76.8387 164.673 78.6615 163.215 81.0182 161.405C83.3748 159.595 86.3173 157.564 89.7937 155.376C91.5384 154.309 93.3612 153.137 95.4054 152.069C97.4495 151.002 99.5067 149.765 101.785 148.71L105.236 147.018C106.42 146.484 107.67 145.989 108.907 145.468L112.683 143.841L116.68 142.395L120.769 140.924L125.052 139.622L129.414 138.32L133.932 137.265L135.416 136.927C140.685 135.937 146.227 135.152 152.043 134.57C145.099 138.294 139.294 143.831 135.245 150.59C131.196 157.35 129.054 165.081 129.047 172.96C129.041 180.84 131.169 188.574 135.207 195.34C139.244 202.107 145.04 207.653 151.978 211.389C149.556 211.142 147.186 210.868 144.856 210.543L143.241 210.295C141.653 210.022 140.064 209.84 138.528 209.501L133.932 208.446L129.414 207.392L125.052 206.09L120.769 204.853L116.68 203.369L112.683 201.923L108.907 200.309C107.605 199.775 106.42 199.293 105.236 198.759L101.785 197.067C99.5067 196.012 97.4235 194.814 95.4054 193.708C93.3873 192.601 91.4994 191.468 89.7937 190.387C86.3173 188.213 83.3748 186.143 81.0182 184.359C78.6615 182.575 76.8517 181.091 75.6539 180.036C74.456 178.982 73.8701 178.37 73.8701 178.37C73.8701 178.37 74.3519 179.06 75.3674 180.31C76.8279 182.127 78.3838 183.866 80.0286 185.518C82.5813 188.09 85.2856 190.508 88.1271 192.757L89.1818 193.59C86.5778 192.288 84.0649 190.908 81.7863 189.593C74.903 185.634 68.3693 181.095 62.2562 176.026L119.297 173.032L62.1911 170.011ZM142.707 151.861C142.707 150.256 143.162 148.683 144.02 147.327C144.878 145.97 146.103 144.885 147.554 144.198C149.005 143.51 150.62 143.249 152.214 143.444C153.807 143.639 155.312 144.283 156.554 145.3C157.796 146.317 158.723 147.666 159.229 149.189C159.734 150.713 159.796 152.349 159.408 153.906C159.02 155.464 158.198 156.879 157.037 157.988C155.876 159.096 154.424 159.852 152.85 160.168C152.995 160.645 153.074 161.14 153.084 161.639C153.088 162.561 152.853 163.469 152.403 164.274C151.952 165.078 151.301 165.753 150.513 166.232C149.725 166.711 148.827 166.978 147.905 167.008C146.983 167.038 146.069 166.828 145.252 166.401C144.435 165.973 143.742 165.342 143.241 164.568C142.74 163.793 142.447 162.903 142.392 161.982C142.336 161.062 142.519 160.142 142.924 159.313C143.328 158.484 143.94 157.774 144.699 157.251C143.422 155.745 142.717 153.836 142.707 151.861ZM175.258 197.692C181.422 194.313 186.327 189.028 189.239 182.629C192.151 176.23 192.912 169.061 191.41 162.193C189.908 155.325 186.222 149.128 180.905 144.529C175.588 139.93 168.925 137.176 161.912 136.68C168.461 134.701 175.423 134.53 182.062 136.184C188.7 137.838 194.768 141.256 199.623 146.075C204.479 150.895 207.941 156.937 209.644 163.563C211.348 170.189 211.228 177.152 209.299 183.716C207.369 190.279 203.702 196.199 198.684 200.85C193.666 205.5 187.484 208.707 180.793 210.133C174.102 211.558 167.15 211.148 160.673 208.947C154.195 206.745 148.433 202.834 143.996 197.627C148.775 200.249 154.136 201.629 159.586 201.64C165.037 201.651 170.403 200.294 175.193 197.692H175.258ZM172.745 123.594C157.195 123.544 141.688 125.226 126.51 128.607L158.279 67.1782H187.223L218.979 128.607C203.78 125.221 188.251 123.539 172.68 123.594H172.745ZM120.065 130.183C108.854 133.099 97.953 137.097 87.5152 142.122L72.477 113.035L118.321 67.1782H152.577L120.065 130.183ZM120.065 215.829L152.616 278.833H118.321L72.477 232.989L87.5152 203.902C97.9326 208.918 108.812 212.913 120 215.829H120.065ZM126.576 217.404C157.028 224.084 188.566 224.084 219.018 217.404L187.262 278.833H158.201L126.576 217.404ZM225.528 215.829C236.713 212.913 247.587 208.919 258 203.902L273.052 232.989L227.039 278.833H192.783L225.528 215.829ZM225.528 130.183L192.978 67.1782H227.039L272.895 113.035L257.844 142.122C247.432 137.101 236.557 133.103 225.372 130.183H225.528ZM229.122 62.1785L217.404 50.4604C225.751 53.5403 233.761 57.4668 241.309 62.1785H229.122ZM222.052 62.1785H190.205L180.192 42.8176C189.285 43.3323 198.297 44.8074 207.079 47.2184L222.052 62.1785ZM184.58 62.1785H160.792L170.909 42.6483C171.495 42.6483 172.081 42.6483 172.68 42.6483C173.279 42.6483 173.865 42.6483 174.463 42.6483L184.58 62.1785ZM155.181 62.1785H123.32L138.281 47.2184C147.067 44.8064 156.083 43.3313 165.18 42.8176L155.181 62.1785ZM116.264 62.1785H104.038C111.581 57.4667 119.586 53.5402 127.93 50.4604L116.264 62.1785ZM111.264 67.1782L70.0552 108.361L65.2769 99.0645C73.7948 86.7137 84.3634 75.9117 96.5251 67.1261L111.264 67.1782ZM66.3706 112.085L50.1605 128.256C53.2974 119.752 57.3073 111.597 62.126 103.921L66.3706 112.085ZM68.7793 116.759L83.1014 144.374C70.268 150.881 58.4838 159.277 48.1424 169.282L47.6607 169.764C45.6426 171.795 44.653 173.006 44.653 173.006C44.653 173.006 45.6426 174.216 47.6607 176.248L48.1424 176.729C58.4631 186.733 70.2251 195.133 83.0363 201.65L68.7532 229.266L46.8404 207.405C40.6604 184.888 40.6604 161.123 46.8404 138.607L68.7793 116.759ZM66.3706 233.94L62.152 242.09C57.3282 234.417 53.3181 226.261 50.1866 217.756L66.3706 233.94ZM70.0813 237.65L111.264 278.833H96.5772C84.4173 270.045 73.849 259.244 65.3289 246.895L70.0813 237.65ZM116.277 283.833L127.995 295.551C119.645 292.476 111.634 288.55 104.09 283.833H116.277ZM123.347 283.833H155.168L165.18 303.207C156.084 302.682 147.068 301.203 138.281 298.793L123.347 283.833ZM160.818 283.833H184.593L174.489 303.363C173.891 303.363 173.305 303.363 172.706 303.363C172.107 303.363 171.521 303.363 170.935 303.363L160.818 283.833ZM180.205 303.207L190.231 283.833H222.065L207.079 298.793C198.292 301.203 189.276 302.682 180.179 303.207H180.205ZM217.456 295.525L229.174 283.807H241.387C233.817 288.528 225.78 292.455 217.404 295.525H217.456ZM248.808 278.833H234.122L275.304 237.65L280.082 246.895C271.55 259.251 260.964 270.053 248.782 278.833H248.808ZM290.707 272.232C289.932 273.148 289.345 274.209 288.981 275.353C288.616 276.497 288.482 277.702 288.585 278.898H275.916C280.598 274.294 284.974 269.388 289.014 264.211L292.347 270.656C291.734 271.107 291.182 271.637 290.707 272.232ZM283.233 242.155L279.015 234.005L295.199 217.821C292.063 226.304 288.053 234.438 283.233 242.09V242.155ZM298.467 207.47L276.606 229.266L262.284 201.637C288.207 188.122 300.667 172.993 300.667 172.993C300.667 172.993 288.207 157.863 262.284 144.348L276.606 116.733L298.467 138.593C304.664 161.108 304.664 184.878 298.467 207.392V207.47ZM311.279 165.727C311.188 164.53 311.083 163.202 310.966 161.73C310.89 160.126 310.699 158.529 310.393 156.952C309.781 153.541 309.091 149.622 308.31 145.234C307.086 140.95 305.888 136.12 304.261 131.055L301.214 123.243C300.68 121.941 300.186 120.509 299.587 119.141C298.988 117.774 298.219 116.446 297.529 115.066C285.937 90.6955 267.399 70.2955 244.246 56.4303C221.092 42.5651 194.357 35.8535 167.4 37.1391C140.444 38.4248 114.468 47.6503 92.7397 63.656C71.0111 79.6617 54.4986 101.733 45.278 127.097C44.4968 129.414 43.4552 131.654 42.8693 134.023C42.2834 136.393 41.5673 138.763 41.0204 141.106C39.5491 145.807 39.1195 150.546 38.2862 155.233L37.7263 158.762C37.6222 159.973 37.5831 161.209 37.505 162.433C37.3618 164.881 37.2185 167.329 37.0883 169.764L36.9842 171.586V172.498V172.954C36.9819 172.993 36.9819 173.032 36.9842 173.071V173.279L37.1404 176.834C37.2446 179.19 37.3487 181.547 37.4529 183.877C39.2722 207.979 47.3667 231.185 60.9321 251.189C74.4974 271.193 93.0614 287.3 114.779 297.908L118.855 299.978C120.222 300.564 121.602 301.071 122.943 301.605L130.755 304.639C135.859 306.266 140.65 307.464 144.934 308.701L156.652 310.771C158.229 311.078 159.826 311.269 161.43 311.344L165.441 311.657L172.784 312.23L165.427 312.06L161.404 311.969C159.793 311.987 158.182 311.882 156.587 311.657L144.491 310.068C140.116 309.001 135.221 307.998 129.974 306.553L121.94 303.793C120.547 303.298 119.115 302.855 117.696 302.308L113.464 300.381C100.452 294.766 88.4451 287.06 77.9194 277.57C65.2713 266.413 54.7158 253.089 46.7493 238.223C37.7955 221.547 32.3623 203.209 30.7866 184.346C30.6434 181.898 30.5002 179.438 30.37 176.964L30.1616 173.279V172.198V171.287L30.3049 169.373L30.6174 162.043C30.6825 160.819 30.7085 159.595 30.8127 158.358L31.3465 154.556C32.1407 149.504 32.6485 144.296 34.0677 139.388C34.6926 136.914 35.3697 134.414 35.9686 131.927C36.5675 129.44 37.6482 127.045 38.4685 124.597C45.4351 104.778 56.7661 86.7776 71.6243 71.9262C86.4824 57.0749 104.488 45.752 124.31 38.7944C143.401 31.9839 163.734 29.3596 183.929 31.0995C202.827 32.6623 221.202 38.0958 237.91 47.0621C252.785 55.0323 266.122 65.587 277.296 78.2323C286.796 88.7749 294.502 100.805 300.107 113.842C300.758 115.274 301.409 116.681 302.034 118.074C302.659 119.467 303.037 120.925 303.532 122.305C304.478 125.092 305.394 127.774 306.279 130.352C307.724 135.56 308.74 140.494 309.794 144.869C310.367 149.335 310.888 153.319 311.331 156.796C311.557 158.391 311.661 160.002 311.643 161.613C311.643 163.097 311.708 164.438 311.734 165.649C311.839 170.441 311.904 173.006 311.904 173.006C311.904 173.006 311.656 170.454 311.279 165.662V165.727ZM328.205 177.784L320.067 185.909C320.432 181.677 320.666 177.406 320.666 173.071C320.666 168.735 320.432 164.464 320.067 160.233L328.205 168.37C327.328 169.784 326.864 171.414 326.864 173.077C326.864 174.74 327.328 176.371 328.205 177.784Z" fill="white"/>
</svg>
