<svg width="42" height="52" viewBox="0 0 42 52" fill="none" xmlns="http://www.w3.org/2000/svg">
<path d="M16.5258 0.826111C2.48534 0.826111 -8.94824 12.3 -8.94824 26.39C-8.94824 40.4799 2.48534 51.9539 16.5258 51.9539C30.5662 51.9539 41.9998 40.4799 41.9998 26.39C42.0455 12.3 30.6119 0.826111 16.5258 0.826111ZM40.8564 28.3635C40.582 31.7598 39.5759 34.9266 38.1124 37.6344C36.6946 40.3423 34.7738 42.637 32.8072 44.427C30.7949 46.2169 28.6911 47.502 26.6788 48.374C24.7122 49.246 22.8828 49.7509 21.3736 50.0262C19.8644 50.3016 18.6296 50.3475 17.8063 50.3934C16.9831 50.3934 16.5258 50.3934 16.5258 50.3934C16.5258 50.3934 16.9831 50.3475 17.8063 50.3475C18.6296 50.2557 19.8186 50.1639 21.3279 49.7968C22.8371 49.4755 24.6208 48.8788 26.4959 47.9609C28.4167 47.043 30.429 45.7121 32.3498 43.9221C34.225 42.1322 36.0086 39.8833 37.3349 37.2214C38.6612 34.5594 39.5301 31.4844 39.8045 28.2717C40.0332 25.0131 39.6216 21.6627 38.4783 18.4959C37.655 16.1553 36.3745 13.9523 34.8652 11.9788C35.3226 13.5392 35.8257 15.6963 36.0086 18.1747C35.9629 18.1288 35.9171 18.0829 35.8714 18.037C35.597 17.8075 35.2768 17.7157 35.0939 17.7157C35.0024 17.7157 34.911 17.7616 34.8652 17.7616C34.8195 17.7616 34.7738 17.8075 34.7738 17.8075C34.7738 17.8075 34.8195 17.8075 34.8652 17.8075C34.911 17.8075 35.0024 17.8534 35.0482 17.8993C35.1854 17.9911 35.3683 18.1288 35.5513 18.3582C35.6885 18.5877 35.8257 18.909 35.8714 19.2303C35.8714 19.2762 35.8714 19.3221 35.8714 19.368V19.5056C35.8714 19.5974 35.8714 19.6892 35.8714 19.7351C35.8714 19.9187 35.8257 20.0564 35.7799 20.24C35.7342 20.3777 35.6427 20.5153 35.5513 20.6071C35.4598 20.6989 35.4141 20.7448 35.2311 20.7907C35.1854 20.7907 35.0024 20.7907 34.911 20.7448C34.7738 20.6989 34.6823 20.6071 34.5451 20.5153C34.3164 20.3318 34.1792 20.1023 34.0878 19.9646C33.9963 19.8269 33.9506 19.6892 33.9506 19.6892C33.9506 19.6892 33.9506 19.7351 33.9506 19.781C33.9506 19.8269 33.9506 19.9187 33.9506 20.0105C33.9506 20.1941 33.9963 20.5153 34.1792 20.7907C34.2707 20.9284 34.4079 21.112 34.5908 21.2497C34.7738 21.3874 35.0024 21.525 35.3226 21.525C35.5513 21.525 35.9171 21.4333 36.1001 21.2497L36.1458 21.2038C36.1001 22.6265 35.9171 24.1411 35.597 25.7015C35.9171 25.7015 36.1458 25.5639 36.3287 25.4262C36.5117 25.2885 36.6489 25.1508 36.7403 25.0131C36.8318 24.8754 36.9233 24.7836 36.969 24.7377C37.0148 24.6918 37.0605 24.646 37.0605 24.646C37.0605 24.646 37.0605 24.7377 37.0605 24.8295C37.0605 24.9672 37.0148 25.1508 36.9233 25.3344C36.8318 25.518 36.6489 25.7474 36.4202 25.931C36.1915 26.1146 35.9171 26.2064 35.597 26.2064C35.2768 26.2064 35.0024 26.1146 34.7738 25.931C34.5451 25.7474 34.4079 25.518 34.3164 25.3344C34.225 25.1508 34.1792 24.9213 34.1792 24.8295C34.1792 24.6918 34.1792 24.646 34.1792 24.646C34.1792 24.646 33.9963 24.7377 33.9506 25.1508C33.9506 25.3803 33.9506 25.6557 34.1792 26.0228C34.3622 26.3441 34.7738 26.7113 35.3683 26.803C35.2768 27.0784 35.2311 27.3538 35.1396 27.6292C34.7738 27.6292 34.4536 27.7669 34.225 28.0422C33.8134 28.5471 33.9048 29.3273 34.4079 29.7404C34.042 30.6583 33.5847 31.6221 33.0816 32.54C33.5389 32.5859 33.9048 32.4482 34.1792 32.3105C34.5451 32.1269 34.7738 31.8975 34.9567 31.7139C35.1396 31.5303 35.2311 31.3926 35.3226 31.3467C35.4141 31.2549 35.4598 31.2549 35.4598 31.2549C35.4598 31.2549 35.4141 31.3467 35.3683 31.5762C35.2768 31.7598 35.1396 32.0351 34.911 32.3105C34.6823 32.5859 34.3622 32.8154 33.9506 32.999C33.7676 33.0907 33.5389 33.1366 33.3103 33.1366C33.0816 33.1366 32.8529 33.1366 32.6243 33.0449C32.3956 32.999 32.1669 32.8613 31.984 32.7695C31.801 32.6318 31.6181 32.4941 31.4809 32.3105C31.2065 31.9434 31.0693 31.5762 31.0236 31.209C30.9778 30.8419 30.9778 30.5665 31.0236 30.3829C31.0693 30.1993 31.0693 30.0616 31.0693 30.0616C31.0693 30.0616 31.0236 30.0616 30.9778 30.1534C30.8864 30.2452 30.7949 30.3829 30.7034 30.7042C30.6577 30.9795 30.5662 31.4385 30.7949 31.9893C30.8864 32.2646 31.0693 32.5859 31.3437 32.8613C31.6181 33.1366 31.984 33.412 32.4871 33.5497C32.3041 33.871 32.0754 34.1922 31.8925 34.5135C31.7553 34.5135 31.6181 34.5135 31.4809 34.5135C30.7034 34.6512 30.2003 35.2937 30.2918 35.9363C30.2918 35.9822 30.3375 36.074 30.3375 36.1199C29.7887 35.9822 29.2857 35.4773 29.1484 34.6971C28.9198 33.3202 27.7307 30.4747 26.6331 29.8781C25.444 29.2355 24.4836 30.796 25.1238 31.3008C26.5873 32.4023 25.8556 34.5135 25.9928 36.3493C26.0385 37.0837 26.4044 37.6803 26.7245 38.2311C25.9928 38.4605 25.5354 39.149 25.6726 39.7915C25.7184 40.1587 25.947 40.4341 26.2672 40.6176C25.8098 40.9848 25.3982 41.3061 24.9409 41.6273C24.9409 41.5814 24.9409 41.5355 24.9409 41.4897C24.8952 40.893 24.7122 40.3882 24.4835 40.021C24.2549 39.6538 23.9805 39.3785 23.7518 39.2408C23.2487 38.8736 22.8828 38.8277 22.6999 38.8277C22.4712 38.8277 22.4255 38.8277 22.4255 38.8277C22.4255 38.8277 22.4712 38.8277 22.5627 38.8736C22.6542 38.9195 22.7914 38.9654 22.9743 39.0572C23.2945 39.2408 23.7975 39.6538 24.1177 40.2505C24.4378 40.8471 24.5293 41.7191 24.2091 42.5453C23.9347 43.3714 23.2487 44.1057 22.4255 44.5188C21.6023 44.9318 20.5961 44.9777 19.8186 44.6565C18.9954 44.3352 18.4009 43.6926 18.1722 43.0501C17.8978 42.4076 17.9435 41.8109 18.035 41.3979C18.0807 41.2143 18.1265 41.0307 18.1722 40.9389C18.2179 40.8471 18.2179 40.8012 18.2179 40.8012C18.2179 40.8012 18.1722 40.8471 18.035 41.0307C17.9435 41.2143 17.7149 41.5355 17.6691 42.1322C17.6234 42.4076 17.6234 42.7747 17.7606 43.2337C17.8521 43.6467 18.1265 44.1057 18.5381 44.5647C18.6296 44.6564 18.721 44.7482 18.8582 44.84C18.3552 45.0236 17.8521 45.1613 17.349 45.299C17.2118 44.9318 17.0289 44.7023 16.8459 44.5188C16.6172 44.2893 16.3886 44.1516 16.2056 44.0598C15.794 43.8762 15.5654 43.8762 15.3824 43.8762C15.2452 43.8762 15.1537 43.9221 15.1537 43.9221C15.1537 43.9221 15.1995 43.9221 15.2452 43.968C15.3367 44.0139 15.4282 44.0598 15.5654 44.1057C15.8398 44.2434 16.1599 44.4729 16.48 44.84C16.6172 45.0236 16.7544 45.2531 16.8459 45.5285C16.9374 45.8038 16.8917 46.1251 16.8002 46.4005C16.5715 46.9971 15.9312 47.3643 15.291 47.502C14.0104 47.7774 12.5926 47.1807 12.0438 46.3546C11.7694 45.9415 11.6779 45.5285 11.7237 45.2072C11.7237 45.0695 11.7694 44.9318 11.8151 44.8859C11.8609 44.7941 11.8609 44.7941 11.8609 44.7941C11.8609 44.7941 11.8151 44.7941 11.6779 44.9318C11.5865 45.0695 11.4035 45.299 11.4035 45.7579C11.4035 45.8497 11.4035 45.9874 11.4493 46.1251C11.1291 46.1251 10.809 46.1251 10.5346 46.1251C10.5803 45.9874 10.5803 45.8038 10.5346 45.6662C10.3974 44.9318 9.57416 44.427 8.70521 44.6106C8.65947 44.6106 8.568 44.6565 8.52227 44.6565C8.52227 44.3352 8.61374 44.0139 8.79667 43.7844C9.61989 42.5911 11.9981 41.7191 12.0895 39.6538C12.1353 38.1393 5.68674 38.6441 5.68674 41.0766C5.73248 43.4632 4.63485 43.2796 3.81164 44.6106C3.67443 44.84 3.53723 45.0236 3.40003 45.1613C2.80548 44.9777 2.25667 44.84 1.79932 44.6565C1.84506 44.6106 1.84506 44.5647 1.89079 44.5188C2.07373 44.1975 1.93653 43.7385 1.52492 43.5091C1.15904 43.2796 0.655966 43.3714 0.473029 43.6926C0.427295 43.7844 0.427295 43.8303 0.381561 43.9221C-4.23761 39.562 -7.11887 33.3661 -7.11887 26.4818C-7.11887 26.4818 -7.11887 26.0228 -7.11887 25.1967C-7.07313 24.3706 -7.0274 23.1314 -6.75299 21.6168C-6.47859 20.1023 -5.97551 18.2665 -5.10656 16.2929C-4.23761 14.3194 -2.95705 12.1623 -1.17341 10.1888C0.610231 8.16941 2.85121 6.28769 5.59527 4.86493C8.2936 3.39627 11.4493 2.38656 14.8336 2.11119C18.1722 1.83581 21.7395 2.20298 25.0781 3.44216C28.4167 4.63545 31.5266 6.60896 34.0878 9.17912C36.6031 11.7493 38.6155 14.8702 39.8045 18.2206C40.765 21.4333 41.1308 25.0131 40.8564 28.3635Z" fill="white" fill-opacity="0.2"/>
<path d="M22.9744 33.0449C22.7458 32.6777 22.4714 32.3564 22.1969 32.1269C21.9225 31.8975 21.6024 31.7598 21.328 31.668C21.0536 31.5762 20.8249 31.5303 20.5962 31.4844C20.3676 31.4844 20.2304 31.4844 20.1389 31.4844C20.0474 31.4844 19.956 31.4844 19.956 31.4844C19.956 31.4844 20.0017 31.4844 20.1389 31.5303C20.2304 31.5303 20.4133 31.5762 20.5962 31.6221C20.7792 31.668 21.0079 31.7598 21.2365 31.8975C21.4652 32.0352 21.6939 32.2187 21.9225 32.4482C22.1512 32.6777 22.3341 32.9531 22.4714 33.2743C22.6086 33.5956 22.7 33.9628 22.7 34.3299C22.7 34.4217 22.7 34.5135 22.7 34.6053C22.7 34.6971 22.7 34.8348 22.6543 34.9266C22.6086 35.1102 22.5628 35.2937 22.5171 35.4773C22.3799 35.8445 22.1512 36.1658 21.8768 36.4411C21.6024 36.7165 21.2823 36.946 20.9164 37.0837C20.5505 37.2214 20.1846 37.2673 19.773 37.2673C19.4072 37.2673 19.0413 37.1755 18.7211 37.0378C18.401 36.9001 18.1266 36.7165 17.8979 36.487C17.6692 36.2576 17.4863 36.0281 17.3491 35.7986C17.2119 35.5691 17.1204 35.3396 17.0747 35.1561C17.029 34.9725 16.9832 34.8348 16.9832 34.6971C16.9832 34.6053 16.9375 34.5135 16.9375 34.5135C16.9375 34.5135 16.9375 34.5594 16.9375 34.6971C16.9375 34.7889 16.9375 34.9725 16.9375 35.1561C16.9832 35.3396 16.9832 35.615 17.1204 35.8904C17.2119 36.1658 17.3491 36.4411 17.5778 36.7624C18.0351 37.359 18.7669 37.8639 19.773 37.9557C20.2304 38.0016 20.7334 37.9557 21.1908 37.7721C21.6481 37.5885 22.1055 37.3132 22.4714 36.9919C22.8372 36.6247 23.1116 36.1658 23.2488 35.7068C23.3403 35.4773 23.386 35.2479 23.4318 34.9725C23.4318 34.8348 23.4318 34.743 23.4318 34.6512C23.4318 34.5135 23.4318 34.4217 23.4318 34.284C23.3403 33.8251 23.1574 33.412 22.9744 33.0449Z" fill="white" fill-opacity="0.2"/>
<path d="M9.4827 31.5303C9.39123 30.8419 8.97962 30.3371 8.56801 30.0158C8.33934 29.8781 8.1564 29.7863 7.97346 29.6945C7.79053 29.6486 7.60759 29.6027 7.47039 29.6027C7.33318 29.6027 7.19598 29.6027 7.15025 29.6027C7.05878 29.6027 7.05878 29.6027 7.05878 29.6027C7.05878 29.6027 7.10451 29.6027 7.15025 29.6486C7.24172 29.6486 7.33318 29.6945 7.42465 29.7404C7.65332 29.8322 7.97347 30.0158 8.24787 30.3371C8.38508 30.4747 8.52228 30.6583 8.61375 30.8878C8.70522 31.1173 8.75095 31.3468 8.75095 31.5762C8.75095 31.6221 8.75095 31.7139 8.75095 31.7598C8.75095 31.8057 8.75095 31.8975 8.75095 31.9893C8.75095 32.0811 8.70521 32.2188 8.65948 32.3106C8.56801 32.54 8.43081 32.7695 8.29361 32.9072C8.11067 33.0908 7.92773 33.2285 7.69906 33.3203C7.47039 33.4121 7.24171 33.458 6.96731 33.458C6.73864 33.458 6.50997 33.4121 6.28129 33.3203C6.05262 33.2285 5.86969 33.1367 5.73248 32.999C5.59528 32.8613 5.45808 32.7236 5.36661 32.5859C5.27514 32.4483 5.18367 32.3106 5.13794 32.1729C5.0922 32.0352 5.04647 31.9434 5.04647 31.8975C5.04647 31.8057 5.00073 31.8057 5.00073 31.8057C5.00073 31.8057 5.00073 31.8516 5.00073 31.8975C5.00073 31.9893 5.00073 32.0811 5.00073 32.2188C5.00073 32.3565 5.04647 32.54 5.0922 32.7236C5.13794 32.9072 5.27514 33.1367 5.41234 33.3203C5.54955 33.5039 5.77822 33.7333 6.00689 33.871C6.28129 34.0087 6.5557 34.1464 6.92158 34.1923C7.24172 34.2382 7.60759 34.1923 7.92773 34.1005C8.24787 34.0087 8.56801 33.7792 8.84242 33.5039C9.11682 33.2285 9.29976 32.9072 9.39123 32.5859C9.43696 32.4024 9.4827 32.2188 9.4827 32.0352C9.4827 31.9434 9.4827 31.8975 9.4827 31.8057C9.52843 31.668 9.4827 31.6221 9.4827 31.5303Z" fill="white" fill-opacity="0.2"/>
<path d="M12.6385 25.931C12.8671 25.9769 13.1415 25.9769 13.3702 25.8852C13.5989 25.7934 13.8733 25.6557 14.0562 25.4721C14.2392 25.2885 14.3764 25.059 14.4678 24.7837C14.5136 24.646 14.5136 24.5542 14.5136 24.3706C14.5136 24.2788 14.5136 24.2788 14.5136 24.2329C14.5136 24.1411 14.5136 24.0952 14.5136 24.0493C14.4221 23.5445 14.1477 23.1773 13.8276 22.9937C13.5074 22.8101 13.233 22.7643 13.0501 22.7643C12.8671 22.7643 12.7757 22.8101 12.7757 22.8101C12.7757 22.8101 12.8214 22.8101 12.8671 22.856C12.9129 22.856 13.0043 22.9019 13.0501 22.9478C13.1873 23.0396 13.416 23.1773 13.5532 23.3609C13.7361 23.5904 13.8276 23.8657 13.8276 24.1411C13.8276 24.187 13.8276 24.2329 13.8276 24.2329C13.8276 24.2788 13.8276 24.3247 13.8276 24.3706C13.8276 24.4165 13.7818 24.5083 13.7818 24.5542C13.7361 24.6919 13.6446 24.8296 13.5532 24.9213C13.4617 25.0131 13.3245 25.1049 13.1873 25.1508C13.0501 25.1967 12.9129 25.2426 12.7757 25.2426C12.6385 25.2426 12.5013 25.2426 12.3641 25.1967C12.2269 25.1508 12.0897 25.1049 11.9982 25.0131C11.7695 24.8754 11.6323 24.646 11.5408 24.5083C11.4951 24.4165 11.4494 24.3706 11.4494 24.3247C11.4494 24.2788 11.4036 24.2329 11.4036 24.2329C11.4036 24.2329 11.4036 24.2788 11.4036 24.3247C11.4036 24.3706 11.3579 24.4624 11.3579 24.5542C11.3579 24.7378 11.4036 25.059 11.6323 25.3344C11.7238 25.4721 11.861 25.6098 12.0439 25.7475C12.1354 25.8393 12.3641 25.931 12.6385 25.931Z" fill="white" fill-opacity="0.2"/>
<path d="M-0.166937 17.7157C0.061735 17.8075 0.381875 17.8075 0.656281 17.7616C1.20509 17.624 1.70817 17.3027 2.07405 16.8437C2.25698 16.6143 2.43992 16.3848 2.53139 16.1094C2.66859 15.8799 2.76006 15.5587 2.76006 15.3292C2.85153 14.7784 2.71433 14.2277 2.43992 13.9064C2.30272 13.7228 2.11978 13.631 1.93684 13.5851C1.75391 13.5392 1.6167 13.5392 1.4795 13.5392C1.25083 13.5392 1.11362 13.631 1.11362 13.631C1.11362 13.631 1.15936 13.631 1.20509 13.631C1.25083 13.631 1.3423 13.631 1.4795 13.631C1.57097 13.631 1.75391 13.6769 1.84537 13.7687C1.98258 13.8605 2.11978 13.9523 2.21125 14.09C2.43992 14.4113 2.48565 14.8702 2.39419 15.3292C2.34845 15.5587 2.25698 15.7881 2.16551 16.0176C2.07405 16.2471 1.89111 16.4766 1.75391 16.6601C1.38803 16.9814 0.976422 17.3027 0.519078 17.3945C0.290407 17.4404 0.0617352 17.4863 -0.121202 17.4404C-0.304139 17.3945 -0.487077 17.3027 -0.62428 17.165C-0.898686 16.8896 -0.94442 16.5684 -0.990154 16.3389C-0.990154 16.2012 -0.990154 16.1094 -0.990154 16.0635C-0.990154 16.0176 -0.990154 15.9717 -0.990154 15.9717C-0.990154 15.9717 -0.990154 16.0176 -0.990154 16.0635C-0.990154 16.1094 -1.03589 16.2012 -1.03589 16.3389C-1.03589 16.5684 -1.03589 16.9814 -0.761483 17.3486C-0.62428 17.4863 -0.441343 17.6699 -0.166937 17.7157Z" fill="white" fill-opacity="0.2"/>
<path d="M-0.167155 10.2806C-0.167155 10.1888 -0.121421 10.1888 -0.121421 10.1888C-0.121421 10.1888 -0.167155 10.2347 -0.167155 10.2806C-0.258624 10.3265 -0.304358 10.4183 -0.350093 10.556C-0.395827 10.6937 -0.487296 10.8773 -0.487296 11.0608C-0.53303 11.2903 -0.53303 11.5198 -0.395827 11.7952C-0.304358 12.0706 -0.075687 12.3 0.244453 12.4836C0.381656 12.5754 0.564593 12.6213 0.747531 12.6672C0.838999 12.7131 0.884733 12.7131 0.976202 12.7131H1.02194C1.06767 12.7131 1.06767 12.7131 1.1134 12.7131H1.25061C1.93662 12.7131 2.62264 12.4377 3.17145 12.0247C3.44585 11.8411 3.72026 11.6116 3.94893 11.3362C4.0404 11.1985 4.1776 11.0608 4.26907 10.9232C4.36054 10.7855 4.45201 10.6019 4.49774 10.4642C4.63495 10.1888 4.72641 9.86756 4.77215 9.54629C4.81788 9.22502 4.72642 8.90375 4.58921 8.67427C4.45201 8.3989 4.26907 8.26121 4.08613 8.12353C3.9032 8.03174 3.72026 7.98584 3.58306 7.98584C3.26292 7.98584 3.12571 8.03174 3.12571 8.03174C3.12571 8.03174 3.17145 8.03174 3.21718 8.07763C3.30865 8.07763 3.40012 8.12353 3.53732 8.16942C3.67453 8.21532 3.81173 8.30711 3.9032 8.3989C4.0404 8.53659 4.13187 8.67427 4.1776 8.85786C4.22334 9.04144 4.22334 9.27092 4.1776 9.5004C4.13187 9.72987 4.0404 9.95935 3.9032 10.1888C3.81173 10.3265 3.76599 10.4183 3.67453 10.5101C3.58306 10.6019 3.49159 10.7396 3.40012 10.8314C3.21718 11.015 2.98851 11.2444 2.75984 11.3821C2.3025 11.7034 1.75369 11.9329 1.25061 12.0247H1.15914H1.1134H1.06767C0.976202 12.0247 0.930467 12.0247 0.884733 12.0247C0.793265 12.0247 0.656062 12.0247 0.564594 11.9788C0.381656 11.9329 0.198719 11.7952 0.107251 11.6575C-0.121421 11.3362 -0.121421 10.9232 -0.0756865 10.6937C-0.212889 10.4642 -0.167155 10.3724 -0.167155 10.2806Z" fill="white" fill-opacity="0.2"/>
<path d="M20.4592 8.2612C20.9165 8.2612 21.4196 8.2612 21.877 8.16941C22.3343 8.07762 22.7916 7.93993 23.249 7.71045C23.6149 7.52687 24.0265 7.15971 24.2551 6.74665C24.3466 6.51717 24.4381 6.28769 24.4381 6.05821C24.4381 5.82873 24.3924 5.64515 24.3009 5.46157C24.1637 5.0944 23.935 4.81903 23.7063 4.63544C23.4777 4.45186 23.2947 4.31418 23.1118 4.22238C22.9289 4.13059 22.7917 4.0847 22.7002 4.0388C22.6087 3.99291 22.563 3.99291 22.563 3.99291C22.563 3.99291 22.6087 4.0388 22.7002 4.0847C22.7917 4.13059 22.9289 4.26828 23.0661 4.36007C23.2033 4.49776 23.3862 4.68134 23.5234 4.86492C23.6606 5.0944 23.8435 5.32388 23.8893 5.59925C23.935 5.87463 23.935 6.1959 23.7521 6.42538C23.5691 6.70075 23.2947 6.88433 22.9289 7.06791C22.6087 7.2056 22.1971 7.29739 21.7855 7.38918C21.3739 7.43508 20.9623 7.48098 20.5049 7.43508C20.0933 7.43508 19.636 7.34329 19.2244 7.2515C18.8128 7.15971 18.4012 7.02202 18.0353 6.88433C17.9438 6.83844 17.8523 6.79254 17.7609 6.74665C17.6694 6.70075 17.5779 6.65485 17.4865 6.60896C17.3035 6.51717 17.1663 6.42538 17.0291 6.33358C16.7547 6.10411 16.526 5.87463 16.3431 5.59925C16.2059 5.32388 16.1144 5.04851 16.1602 4.81903C16.2059 4.58955 16.2974 4.36007 16.3888 4.22238C16.4803 4.0847 16.6175 3.94701 16.6632 3.85522C16.7547 3.76343 16.8005 3.76343 16.8005 3.76343C16.8005 3.76343 16.7547 3.80932 16.6632 3.85522C16.5718 3.90111 16.4346 3.99291 16.2974 4.13059C16.1602 4.26828 15.9772 4.49776 15.8858 4.77313C15.7943 5.04851 15.7943 5.46157 15.9772 5.82873C16.1144 6.1959 16.3888 6.51717 16.6632 6.79254C16.8005 6.93023 16.9834 7.06791 17.1663 7.2056C17.2578 7.2515 17.3493 7.29739 17.4407 7.38918C17.5322 7.43508 17.6237 7.48098 17.7609 7.57277C18.1725 7.75635 18.5841 7.93993 19.0414 8.07762C19.5445 8.16941 20.0019 8.2612 20.4592 8.2612Z" fill="white" fill-opacity="0.2"/>
<path d="M28.1426 20.24C28.1426 20.1023 28.1883 19.9646 28.1883 19.8269C28.1883 19.6892 28.1883 19.5974 28.1883 19.4597C28.1883 19.3221 28.1426 19.2303 28.1426 19.0926C27.9596 18.1288 27.4108 17.3944 26.8163 16.9814C26.5419 16.7519 26.2217 16.6142 25.9473 16.5224C25.6729 16.4306 25.4442 16.3847 25.2156 16.3388C24.9869 16.3388 24.8497 16.3388 24.7582 16.3388C24.6667 16.3388 24.5753 16.3388 24.5753 16.3388C24.5753 16.3388 24.621 16.3388 24.7582 16.3847C24.8497 16.3847 25.0326 16.4765 25.2156 16.5224C25.3985 16.6142 25.6272 16.706 25.8558 16.8437C26.0845 16.9814 26.3132 17.165 26.5419 17.3944C26.9992 17.8534 27.3651 18.4959 27.4565 19.2762C27.4565 19.3679 27.4565 19.4597 27.4565 19.5515C27.4565 19.6433 27.4565 19.7351 27.4565 19.8728C27.4108 20.0564 27.4108 20.24 27.3651 20.4235C27.2736 20.7907 27.0449 21.112 26.7705 21.3874C26.4961 21.6627 26.176 21.8463 25.8101 21.984C25.6272 22.0299 25.4442 22.0758 25.2613 22.0758H24.9869C24.8954 22.0758 24.7582 22.0758 24.6667 22.0758C24.3009 22.0299 23.935 21.9381 23.6149 21.7545C23.2947 21.6168 23.0203 21.3874 22.7916 21.1579C22.563 20.9284 22.38 20.6989 22.2428 20.4694C22.1056 20.24 22.0142 20.0105 21.9227 19.8728C21.8769 19.6892 21.7855 19.5515 21.7855 19.4138C21.7397 19.3221 21.7397 19.2762 21.7397 19.2762C21.7397 19.2762 21.7397 19.3221 21.7397 19.4597C21.7397 19.5515 21.7397 19.7351 21.7397 19.9187C21.7855 20.1023 21.8312 20.3777 21.9227 20.653C22.0142 20.9284 22.1971 21.2038 22.4258 21.4791C22.6544 21.7545 22.9288 22.0299 23.2947 22.2594C23.6606 22.4889 24.0722 22.6724 24.5753 22.7642C24.6667 22.7642 24.8039 22.8101 24.8954 22.8101C25.0326 22.8101 25.1241 22.8101 25.2613 22.8101C25.3985 22.8101 25.49 22.8101 25.6272 22.7642C25.7644 22.7183 25.8558 22.7183 25.993 22.6724C26.4961 22.5347 26.9535 22.2594 27.3193 21.8922C27.6852 21.525 27.9596 21.0661 28.0968 20.5612C28.0968 20.5153 28.0968 20.3777 28.1426 20.24Z" fill="white" fill-opacity="0.2"/>
<path d="M2.66824 24.6919C2.94264 24.646 3.26278 24.6001 3.49145 24.4165C3.76586 24.2788 3.99453 24.0953 4.17747 23.8658C4.36041 23.6363 4.54334 23.3609 4.63481 23.0855C4.72628 22.8102 4.77201 22.4889 4.72628 22.2135C4.68055 21.9382 4.58908 21.6628 4.45187 21.4333C4.31467 21.2038 4.13173 21.0661 3.90306 20.9285C3.49145 20.699 3.12558 20.699 2.89691 20.699C2.7597 20.699 2.66824 20.7449 2.6225 20.7449C2.57677 20.7449 2.53103 20.7908 2.53103 20.7908C2.53103 20.7908 2.57677 20.7908 2.6225 20.7908C2.66824 20.7908 2.7597 20.7908 2.89691 20.8367C3.12558 20.8826 3.44572 20.9743 3.72012 21.2038C3.99453 21.4333 4.2232 21.8005 4.2232 22.2594C4.2232 22.4889 4.17747 22.7184 4.13173 22.902C4.04026 23.1314 3.9488 23.315 3.76586 23.4986C3.44572 23.8658 3.03411 24.0953 2.57677 24.187C2.43956 24.2329 2.3481 24.2329 2.25663 24.2329C2.16516 24.2329 2.02796 24.2329 1.93649 24.187C1.75355 24.1411 1.57061 24.0494 1.38767 23.9576C1.06753 23.774 0.884598 23.4527 0.793129 23.2691C0.701661 23.0397 0.70166 22.902 0.70166 22.902C0.70166 22.902 0.70166 22.9479 0.70166 22.9938C0.70166 23.0397 0.70166 23.1773 0.70166 23.2691C0.747394 23.4986 0.838863 23.8658 1.20474 24.187C1.38767 24.3247 1.57061 24.4624 1.84502 24.5542C1.98222 24.6001 2.11942 24.646 2.25663 24.646C2.39383 24.6919 2.57677 24.6919 2.66824 24.6919Z" fill="white" fill-opacity="0.2"/>
<path d="M25.0783 7.71048C25.1241 7.66458 25.1241 7.66458 25.1241 7.66458C25.1241 7.66458 25.1241 7.66458 25.0783 7.71048C24.9869 7.71048 24.8954 7.71048 24.8039 7.80227C24.7125 7.89406 24.621 7.98585 24.5295 8.16943C24.4838 8.35302 24.4381 8.5366 24.4838 8.76608C24.5295 8.99556 24.621 9.17914 24.7582 9.40862C24.8039 9.50041 24.8954 9.5922 24.9869 9.68399C25.0783 9.77578 25.1241 9.82168 25.2613 9.95936C25.6271 10.2806 26.0845 10.556 26.6333 10.6937C26.9077 10.7396 27.1821 10.7855 27.4565 10.7855C27.5937 10.7855 27.7309 10.7855 27.8681 10.7396C27.9596 10.7396 28.0053 10.6937 28.0968 10.6937C28.1883 10.6478 28.234 10.6478 28.2797 10.6019C28.5541 10.4642 28.7828 10.2347 28.8743 9.95936C28.9657 9.68399 28.92 9.40862 28.8285 9.22503C28.6456 8.81197 28.4169 8.62839 28.234 8.4907C28.1425 8.44481 28.0511 8.39891 28.0053 8.35302C27.9596 8.30712 27.9139 8.30712 27.9139 8.30712C27.9139 8.30712 27.9139 8.35302 27.9596 8.39891C28.0053 8.44481 28.0511 8.5366 28.0968 8.62839C28.1883 8.81197 28.3255 9.08735 28.3712 9.36272C28.3712 9.50041 28.3712 9.63809 28.2797 9.77578C28.234 9.86757 28.0968 9.95936 27.9596 10.0053C27.9139 10.0512 27.8681 10.0512 27.8224 10.0512C27.7767 10.0512 27.7309 10.0512 27.6852 10.0512C27.5937 10.0512 27.5023 10.0512 27.4108 10.0512C27.2278 10.0512 26.9992 10.0053 26.8162 9.95936C26.6333 9.91347 26.4046 9.82168 26.2217 9.72989C26.0388 9.63809 25.8558 9.5463 25.6729 9.40862C25.6271 9.36272 25.4899 9.27093 25.4442 9.22503C25.3985 9.17914 25.307 9.08735 25.2613 9.04145C25.1241 8.90376 25.0326 8.76608 24.9869 8.62839C24.8497 8.35302 24.8497 8.12354 24.9411 7.93996C24.9869 7.84816 25.0783 7.75637 25.0783 7.71048Z" fill="white" fill-opacity="0.2"/>
<path d="M3.44572 38.3229C3.21705 38.0016 2.94264 37.818 2.7597 37.6803C2.66824 37.6345 2.57677 37.5886 2.53103 37.5886C2.4853 37.5886 2.43956 37.5427 2.43956 37.5427C2.43956 37.5427 2.53103 37.6345 2.66824 37.7721C2.80544 37.9098 2.98838 38.1852 3.12558 38.4606C3.26278 38.7818 3.39998 39.149 3.39998 39.5621C3.39998 39.6539 3.39999 39.7916 3.35425 39.8374C3.35425 39.8833 3.30852 39.9751 3.30852 40.021C3.30852 40.0669 3.30852 40.1128 3.26278 40.1128C3.17131 40.2964 3.07984 40.3882 2.94264 40.4341C2.80544 40.48 2.6225 40.48 2.43956 40.4341C2.3481 40.3882 2.25663 40.3423 2.16516 40.3423L2.02796 40.2505L1.89075 40.1587C1.57061 39.9292 1.29621 39.608 1.159 39.2867C0.976066 39.0113 0.884598 38.6901 0.838864 38.5065C0.793129 38.3229 0.793129 38.1852 0.793129 38.1852C0.793129 38.1852 0.793129 38.2311 0.747395 38.277C0.747395 38.3229 0.70166 38.4147 0.70166 38.5065C0.70166 38.736 0.701661 39.0572 0.838864 39.4244C0.976067 39.7916 1.20474 40.2046 1.57061 40.5259L1.70782 40.6636L1.84502 40.7554C1.93649 40.8472 2.07369 40.8931 2.21089 40.9389C2.4853 41.0307 2.80544 41.0766 3.12558 40.9389C3.44572 40.8472 3.67439 40.5718 3.81159 40.2964C3.85733 40.2505 3.85733 40.1587 3.90306 40.0669C3.90306 39.9751 3.90306 39.9292 3.9488 39.8833C3.9488 39.6998 3.9488 39.608 3.9488 39.4703C3.90306 39.0572 3.67439 38.6442 3.44572 38.3229Z" fill="white" fill-opacity="0.2"/>
<path d="M0.884627 36.7624C0.930361 36.5329 0.884627 36.3494 0.884627 36.1658C0.838892 35.4314 0.518752 34.7889 0.198612 34.3299C0.0156748 34.1005 -0.121527 33.9169 -0.304465 33.7333C-0.487402 33.5956 -0.624605 33.4579 -0.761808 33.3661C-0.899011 33.2743 -0.99048 33.2284 -1.08195 33.1826C-1.17342 33.1367 -1.21915 33.1367 -1.21915 33.1367C-1.21915 33.1367 -1.17342 33.1826 -1.12768 33.2284C-1.03621 33.2743 -0.99048 33.3661 -0.853277 33.4579C-0.624605 33.6874 -0.350199 34.0546 -0.121528 34.5135C0.107144 34.9725 0.335815 35.5691 0.335815 36.2117C0.335815 36.3494 0.335815 36.5329 0.290081 36.6706C0.290081 36.7624 0.244347 36.8542 0.244347 36.9001C0.198612 36.946 0.198613 37.0378 0.152879 37.0837C0.0156755 37.3591 -0.167262 37.5426 -0.441668 37.6344C-0.716074 37.7262 -1.03621 37.7262 -1.31062 37.6344C-1.44782 37.5885 -1.58503 37.5426 -1.72223 37.4509L-1.9509 37.3132L-2.13384 37.1755C-2.63692 36.8083 -3.00279 36.3035 -3.2772 35.8445C-3.4144 35.615 -3.50587 35.3855 -3.5516 35.202C-3.59734 35.0184 -3.59734 34.8348 -3.64307 34.6971C-3.64307 34.5594 -3.6888 34.4217 -3.6888 34.3299C-3.6888 34.2382 -3.6888 34.1923 -3.6888 34.1923C-3.6888 34.1923 -3.68881 34.2382 -3.73454 34.3299C-3.73454 34.4217 -3.78027 34.5594 -3.78027 34.6971C-3.78027 34.8807 -3.78027 35.0643 -3.73454 35.2938C-3.68881 35.5232 -3.64307 35.7986 -3.5516 36.0281C-3.36866 36.5788 -3.00279 37.1755 -2.45398 37.6344L-2.22531 37.818L-1.99664 37.9557C-1.8137 38.0475 -1.67649 38.1393 -1.44782 38.2311C-1.08195 38.3688 -0.624605 38.4147 -0.167262 38.277C0.244347 38.1393 0.610221 37.7721 0.747424 37.3591C0.793159 37.2673 0.838893 37.1755 0.838893 37.0378C0.838893 36.946 0.884627 36.8542 0.884627 36.7624Z" fill="white" fill-opacity="0.2"/>
<path d="M15.1539 16.5224C15.5198 15.5127 16.5259 14.962 18.8584 14.6407C21.1908 14.3194 23.7977 15.7881 26.7247 15.2832C29.8804 14.7325 26.2674 13.9064 22.5171 12.759C18.8127 11.6116 18.584 12.8967 15.7027 12.5295C12.8672 12.1623 11.4037 12.8049 10.9921 14.503C10.8091 15.3291 7.56201 14.0441 7.56201 15.6045C7.56201 16.4306 7.97362 17.3486 10.0317 18.2665C11.9982 19.1844 14.788 17.5321 15.1539 16.5224Z" fill="white" fill-opacity="0.2"/>
<path d="M0.473194 31.7139C1.06774 31.6221 1.38788 30.796 1.20494 29.8781C1.02201 28.9601 0.42746 28.3176 -0.167086 28.4553C-0.761633 28.5471 -1.08177 29.3732 -0.898836 30.2911C-0.715899 31.209 -0.121352 31.8057 0.473194 31.7139Z" fill="white" fill-opacity="0.2"/>
<path d="M1.70786 33.5497C1.98226 33.5038 2.1652 33.0908 2.07373 32.6318C1.98226 32.1729 1.66212 31.8516 1.38772 31.8975C1.11331 31.9434 0.930372 32.3564 1.02184 32.8154C1.11331 33.2744 1.43345 33.5956 1.70786 33.5497Z" fill="white" fill-opacity="0.2"/>
<path d="M3.85737 37.2673C3.6287 37.405 3.67443 37.818 3.90311 38.1393C4.13178 38.4606 4.49765 38.5983 4.68059 38.4606C4.90926 38.3229 4.86353 37.9098 4.63485 37.5885C4.40618 37.2673 4.04031 37.1296 3.85737 37.2673Z" fill="white" fill-opacity="0.2"/>
<path d="M15.4284 37.0378C14.5595 37.1755 13.9192 37.9098 14.0564 38.69C14.1936 39.4244 15.0168 39.9292 15.8858 39.7456C16.7547 39.608 17.395 38.8736 17.2578 38.0934C17.1206 37.3591 16.2974 36.9001 15.4284 37.0378Z" fill="white" fill-opacity="0.2"/>
<path d="M12.6844 36.8542C12.227 36.946 11.9526 37.3131 11.9984 37.6803C12.0441 38.0475 12.4557 38.2769 12.913 38.231C13.3704 38.1393 13.6448 37.7721 13.5991 37.4049C13.5076 37.0378 13.096 36.8083 12.6844 36.8542Z" fill="white" fill-opacity="0.2"/>
<path d="M14.6965 35.6609C14.3306 35.7068 14.1019 36.0281 14.1476 36.3493C14.1934 36.6706 14.5593 36.8542 14.8794 36.7624C15.2453 36.7165 15.4739 36.3952 15.4282 36.074C15.3825 35.7527 15.0623 35.5691 14.6965 35.6609Z" fill="white" fill-opacity="0.2"/>
<path d="M19.1326 15.9717C18.2636 15.2832 17.0288 15.3291 16.3885 16.1553C15.7025 16.9814 15.8397 18.2206 16.7086 18.909C17.5776 19.5974 18.8124 19.5515 19.4527 18.7254C20.1387 17.8993 20.0015 16.706 19.1326 15.9717Z" fill="white" fill-opacity="0.2"/>
<path d="M20.6879 15.9258C20.3677 16.2929 20.4135 16.8896 20.8251 17.2109C21.2367 17.5321 21.8312 17.4862 22.1514 17.1191C22.4715 16.7519 22.4258 16.1553 22.0142 15.834C21.6026 15.5127 21.008 15.5586 20.6879 15.9258Z" fill="white" fill-opacity="0.2"/>
<path d="M28.1424 26.0228C27.7308 26.39 27.6393 26.9866 27.9137 27.3538C28.2338 27.7209 28.7826 27.7209 29.24 27.3538C29.6516 26.9866 29.7431 26.39 29.4687 26.0228C29.1485 25.6556 28.554 25.6556 28.1424 26.0228Z" fill="white" fill-opacity="0.2"/>
<path d="M19.2699 27.9045C19.7272 28.0422 20.1388 27.8127 20.276 27.4456C20.3675 27.0784 20.1388 26.6654 19.6815 26.5736C19.2241 26.4359 18.8125 26.6654 18.6753 27.0325C18.5381 27.3997 18.8125 27.7668 19.2699 27.9045Z" fill="white" fill-opacity="0.2"/>
<path d="M10.9463 6.79255C12.2269 6.47128 13.0959 5.64516 12.9129 5.00262C12.73 4.36008 11.5866 4.0847 10.3061 4.40597C9.0255 4.72724 8.15655 5.55336 8.33949 6.1959C8.52242 6.83844 9.71152 7.11382 10.9463 6.79255Z" fill="white" fill-opacity="0.2"/>
<path d="M7.9279 7.48101C7.33335 7.75638 7.01321 8.26124 7.15041 8.58251C7.28762 8.90378 7.88216 8.90378 8.47671 8.6284C9.07126 8.35303 9.39139 7.84818 9.25419 7.52691C9.07125 7.20564 8.47671 7.15974 7.9279 7.48101Z" fill="white" fill-opacity="0.2"/>
<path d="M31.5268 13.0803C31.0238 13.5392 31.2982 14.6866 32.2128 15.6504C33.0818 16.6142 34.2252 17.0273 34.7282 16.5683C35.2313 16.1094 34.9569 14.962 34.0422 13.9982C33.1733 13.0344 32.0299 12.6213 31.5268 13.0803Z" fill="white" fill-opacity="0.2"/>
<path d="M16.1141 11.8411C17.4404 11.7952 18.4923 11.1067 18.4465 10.3265C18.4008 9.54627 17.3489 8.94963 16.0226 8.99552C14.6963 9.04142 13.6444 9.72985 13.6902 10.5101C13.7359 11.2903 14.7878 11.8869 16.1141 11.8411Z" fill="white" fill-opacity="0.2"/>
<path d="M12.6386 12.2541C13.1874 12.2541 13.6447 11.9329 13.6447 11.6116C13.6447 11.2903 13.1874 11.0149 12.5928 11.0608C12.044 11.0608 11.5867 11.3821 11.5867 11.7034C11.6324 12.0246 12.0897 12.3 12.6386 12.2541Z" fill="white" fill-opacity="0.2"/>
<path d="M32.3958 12.1164C32.6245 11.887 32.4416 11.2903 31.9842 10.8314C31.5269 10.3724 30.9323 10.1888 30.7037 10.4642C30.475 10.6937 30.6579 11.2903 31.1153 11.7493C31.5726 12.2082 32.1672 12.3918 32.3958 12.1164Z" fill="white" fill-opacity="0.2"/>
<path d="M-8.44503 17.5321C-8.2621 17.0732 -8.12489 16.6142 -7.89622 16.1553C-7.53035 15.1915 -7.02727 14.2276 -6.47846 13.2638C-5.92965 12.3 -5.28936 11.3362 -4.60335 10.4183C-3.91733 9.5004 -3.13985 8.58249 -2.2709 7.75636C-1.44768 6.93024 -0.532994 6.15002 0.381692 5.41569C1.29638 4.72725 2.2568 4.08471 3.21722 3.53396C4.17764 2.98322 5.13806 2.52426 6.09848 2.1112C6.55583 1.88172 7.0589 1.74403 7.47051 1.56045C7.92786 1.42277 8.3852 1.23918 8.79681 1.14739C9.66576 0.917913 10.4432 0.688435 11.175 0.550748C11.5409 0.504852 11.861 0.413061 12.1811 0.367165C12.5013 0.321269 12.7757 0.275374 13.0501 0.229478C13.5532 0.137687 14.0105 0.137687 14.2849 0.0917913C14.5593 0.0458957 14.7423 0.0458956 14.7423 0.0458956C14.7423 0.0458956 14.6051 0.0458956 14.2849 0.0458956C14.0105 0.0458956 13.5989 0 13.0501 0C12.7757 0 12.5013 0 12.1811 0C11.861 0.0458956 11.4951 0.0458957 11.1293 0.0917913C10.3975 0.183583 9.52856 0.275374 8.65961 0.458956C8.20226 0.550748 7.74492 0.688435 7.24184 0.780226C6.7845 0.917913 6.28142 1.0556 5.77834 1.23918C4.77219 1.56045 3.76603 2.01941 2.71414 2.57016C1.70799 3.1209 0.656098 3.71755 -0.350058 4.45188C-1.31048 5.14031 -2.2709 5.96643 -3.13985 6.83845C-4.0088 7.71047 -4.83202 8.67428 -5.56377 9.68398C-6.29552 10.6937 -6.89007 11.7034 -7.43888 12.759C-7.94196 13.8146 -8.3993 14.8243 -8.76517 15.834C-8.94811 16.3389 -9.08531 16.8437 -9.22252 17.3027C-9.35972 17.8075 -9.45119 18.2665 -9.54266 18.7254C-9.72559 19.6433 -9.8628 20.4695 -9.90853 21.2038C-9.95427 21.5251 -9.95427 21.8922 -10 22.2135C-10 22.5348 -10 22.856 -10 23.0855C-10 23.6363 -9.95427 24.0493 -9.95427 24.3247C-9.95427 24.6001 -9.95427 24.7836 -9.95427 24.7836C-9.95427 24.7836 -9.95427 24.646 -9.90853 24.3706C-9.8628 24.0952 -9.8628 23.6822 -9.77133 23.1314C-9.72559 22.856 -9.67986 22.5807 -9.63413 22.2594C-9.58839 21.9381 -9.49692 21.6168 -9.45119 21.2497C-9.31399 20.5154 -9.13105 19.7351 -8.85664 18.8631C-8.71944 18.4042 -8.58224 17.9911 -8.44503 17.5321Z" fill="white" fill-opacity="0.2"/>
</svg>
